<svg width="167" height="29" viewBox="0 0 167 29" fill="none" xmlns="http://www.w3.org/2000/svg">
<path d="M0.472168 21.6436H5.13734V14.2637H12.841V10.5142H5.10665V6.58617H13.6697V2.83669H0.472168V21.6436ZM22.9079 21.8519C25.0564 21.8519 27.0514 21.1377 28.5246 19.8582C29.9978 18.6083 30.9492 16.5848 30.9492 14.2637C30.9492 11.9426 29.9978 9.88929 28.5246 8.63946C27.0514 7.35988 25.0564 6.64569 22.9079 6.64569C20.7288 6.64569 18.7338 7.35988 17.2606 8.63946C15.7874 9.88929 14.8667 11.9426 14.8667 14.2637C14.8667 16.5848 15.7874 18.6083 17.2606 19.8582C18.7338 21.1377 20.7288 21.8519 22.9079 21.8519ZM20.2991 17.0609C19.5932 16.3467 19.2249 15.3945 19.2249 14.2637C19.2249 13.1329 19.5932 12.1806 20.2991 11.4367C21.0051 10.7225 21.8951 10.3654 22.9079 10.3654C23.9515 10.3654 24.8108 10.7225 25.5168 11.4367C26.2227 12.1806 26.591 13.1329 26.591 14.2637C26.591 15.3945 26.2227 16.3467 25.5168 17.0609C24.8108 17.7751 23.9515 18.162 22.9079 18.162C21.8951 18.162 21.0051 17.7751 20.2991 17.0609ZM32.9749 6.88375V14.2637C32.9749 16.7336 33.4046 18.6381 34.2946 19.9177C35.154 21.227 36.5965 21.8519 38.6222 21.8519C40.9241 21.8519 42.4894 21.1377 43.3181 19.6796L43.5329 21.6436H47.707V6.88375H43.3181V14.2637C43.3181 16.6443 42.1825 18.1322 40.1261 18.1322C38.1618 18.1322 37.3331 16.8229 37.3331 14.2637V6.88375H32.9749ZM65.14 21.6436V14.2637C65.14 11.764 64.7103 9.85953 63.8203 8.57995C62.9609 7.2706 61.5184 6.64569 59.4927 6.64569C57.1908 6.64569 55.6255 7.35988 54.7968 8.81801L54.582 6.88375H50.4079V21.6436H54.7968V14.2637C54.7968 11.8533 55.9324 10.3654 57.9888 10.3654C59.9224 10.3654 60.7818 11.7045 60.7818 14.2637V21.6436H65.14ZM73.9486 6.64569C70.1735 6.55642 67.0736 9.82978 67.1043 14.2637C67.0429 18.6976 70.1735 21.9412 73.9486 21.8519C76.2812 21.8519 78.0306 21.1377 78.7979 19.6796L79.0127 21.6436H83.1562V1.49759H78.7979V8.81801C77.9999 7.44915 76.2198 6.64569 73.9486 6.64569ZM75.1456 18.1322C74.102 18.1322 73.2427 17.7751 72.5368 17.0312C71.8308 16.317 71.4932 15.3945 71.4932 14.2339C71.4932 13.1031 71.8308 12.1509 72.5368 11.4367C73.2427 10.7225 74.102 10.3654 75.1456 10.3654C76.1584 10.3654 77.0485 10.7225 77.7544 11.4367C78.4296 12.1509 78.7979 13.1031 78.7979 14.2339C78.7979 15.3945 78.4296 16.317 77.7544 17.0312C77.0485 17.7751 76.1584 18.1322 75.1456 18.1322Z" fill="#3554D1"/>
<path d="M142.913 19.6497C143.005 19.5009 143.128 19.2033 143.128 18.995C143.128 18.9058 142.974 18.6379 142.79 18.5487C142.637 18.4594 142.545 18.5189 142.269 18.6082C142.176 18.6379 142.084 18.6379 141.962 18.6975C141.747 18.8462 141.501 19.0546 141.348 19.2926C141.286 19.4116 141.286 19.6795 141.348 19.7985C141.44 19.9473 141.624 20.0961 141.747 20.1258C141.839 20.1556 142.146 20.0366 142.391 19.977C142.545 19.9175 142.852 19.7092 142.913 19.6497ZM151.139 17.5369C150.924 17.5369 150.77 17.6262 150.218 17.8642C149.942 17.9833 149.972 18.013 149.665 18.1916C148.959 18.5487 147.762 19.2331 147.149 19.5604C146.688 19.7985 146.32 19.8878 146.074 19.858C145.921 19.858 145.798 19.7092 145.798 19.4116C145.829 19.1736 145.952 18.9355 146.105 18.6082C146.228 18.3106 146.412 18.0725 146.596 17.7452C146.78 17.4476 146.903 17.2988 147.118 17.0608C147.394 16.7632 147.486 16.5549 147.793 16.3168C148.008 16.168 148.253 15.8705 148.468 15.7514C148.591 15.6919 148.745 15.6919 148.837 15.7514L148.806 15.7812C148.775 15.9002 148.775 15.9895 148.775 16.0193C148.775 16.1383 148.898 16.3168 148.959 16.3466C148.99 16.4061 149.113 16.4656 149.174 16.4656C149.266 16.4656 149.45 16.4656 149.604 16.4061C149.727 16.3466 149.911 16.1978 149.972 16.0788C150.064 15.93 150.064 15.6026 150.095 15.4539C150.095 15.3051 149.88 15.0075 149.757 14.8885C149.635 14.7992 149.45 14.7397 149.174 14.7694C148.775 14.7992 148.192 14.948 147.64 15.3348C147.241 15.6324 146.719 16.1085 146.32 16.5251C146.013 16.8822 145.706 17.2393 145.491 17.5964C145.184 18.013 145 18.3404 144.816 18.7272C144.693 19.0248 144.601 19.4116 144.57 19.6795C144.509 19.977 144.632 20.3639 144.755 20.5424C144.908 20.8103 145.246 21.0186 145.491 20.9591C145.798 20.9293 145.982 20.8995 146.166 20.8103C146.565 20.602 146.872 20.3937 147.363 20.0961C147.64 19.9175 148.346 19.3819 148.867 19.0546C149.236 18.8165 149.635 18.5784 149.972 18.3701C150.218 18.2213 150.433 18.1023 150.647 18.013C150.862 17.9238 150.985 18.0428 151.139 17.9833C151.231 17.9535 151.292 17.8345 151.292 17.7452C151.292 17.6559 151.2 17.5369 151.139 17.5369ZM152.98 15.6324C152.642 15.6919 152.366 15.811 151.998 16.168C151.538 16.5549 151.046 17.0905 150.893 17.3584C150.678 17.6857 150.433 18.1023 150.248 18.5189C150.156 18.7272 150.095 18.9355 150.034 19.1438C149.942 19.4414 149.88 19.7092 149.88 19.9473C149.88 20.0961 149.942 20.3044 150.034 20.4532C150.095 20.602 150.218 20.6912 150.31 20.7805C150.494 20.8698 150.74 20.9293 150.924 20.9293C151.077 20.9293 151.261 20.8698 151.445 20.8103C151.783 20.6615 152.182 20.4532 152.581 20.1556C152.765 20.0366 152.98 19.858 153.195 19.6795C153.41 19.4712 153.655 19.2629 153.901 19.0248C154.3 18.6082 154.668 18.1618 155.006 17.7155C155.19 17.4476 155.405 17.1203 155.558 16.8525C155.773 16.3764 155.865 16.1978 155.896 15.8407C155.926 15.6324 155.804 15.3646 155.742 15.2158C155.65 15.0372 155.497 14.8885 155.313 14.8289C155.19 14.7992 155.006 14.7397 154.822 14.7397C154.576 14.7397 154.269 14.8587 154.054 14.948C153.931 15.0075 153.594 15.2753 153.287 15.4836C153.256 15.5431 153.195 15.6026 153.164 15.6324C153.103 15.6324 153.041 15.6324 152.98 15.6324ZM153.717 15.6919C153.993 15.5134 154.085 15.5729 154.33 15.5729C154.545 15.5729 154.637 15.6622 154.699 15.7812C154.791 15.9002 154.822 16.0193 154.822 16.2871C154.822 16.4656 154.729 16.8525 154.668 17.0013C154.545 17.4476 154.515 17.4774 154.238 17.8642C154.146 17.9833 154.024 18.1916 153.931 18.3106C153.839 18.4296 153.747 18.5189 153.625 18.6677C153.226 19.0546 152.98 19.2033 152.734 19.3819C152.243 19.739 151.906 19.739 151.63 19.739C151.445 19.739 151.384 19.739 151.261 19.6497C151.169 19.5604 151.169 19.4712 151.169 19.3224C151.169 19.1141 151.231 18.9653 151.261 18.757C151.353 18.5487 151.445 18.3404 151.568 18.1023C151.752 17.8642 152.059 17.3881 152.274 17.2096C152.428 17.1203 152.704 17.1501 152.827 17.0905C153.011 17.031 153.041 17.031 153.195 16.9417C153.44 16.793 153.379 16.5251 153.44 16.2276C153.44 16.1383 153.41 16.0788 153.379 15.9895C153.471 15.8705 153.563 15.7514 153.717 15.6919ZM163.599 16.3764C163.814 15.9597 163.906 15.7217 163.998 15.4836C164.06 15.2158 163.876 14.8289 163.722 14.7694C163.599 14.7099 163.446 14.7099 163.323 14.7694C163.108 14.8885 162.863 15.067 162.679 15.2456C162.525 15.4241 162.31 15.6324 162.126 15.811C161.85 16.1085 161.574 16.4061 161.267 16.6739C161.021 16.9417 160.899 17.0905 160.776 17.1501C160.622 17.2096 160.653 16.8822 160.684 16.7334L160.745 15.9895C160.776 15.6026 160.622 15.3646 160.53 15.3051C160.469 15.2456 160.346 15.2456 160.285 15.2158C160.193 15.186 160.101 15.2158 160.07 15.2158C159.916 15.2158 159.456 15.7217 159.18 16.0193C158.781 16.4954 158.228 17.031 157.983 17.2988C157.921 17.3584 157.093 18.3404 156.97 18.4296C156.878 18.4892 156.847 18.1023 156.939 17.9238C157.031 17.6857 157.277 17.2096 157.584 16.8227C157.768 16.6144 158.075 16.3764 158.198 16.2276C158.412 15.9597 158.382 15.6622 158.382 15.5134C158.412 15.3943 158.351 15.3051 158.228 15.186C158.136 15.1265 157.86 15.0968 157.707 15.1563C157.492 15.2158 157.277 15.4241 157.216 15.5729C157.031 15.9002 156.97 16.168 156.817 16.4359C156.54 16.8822 156.08 17.6262 155.834 18.0725C155.681 18.3701 155.589 18.6677 155.466 18.9058C155.313 19.2331 155.221 19.5604 155.159 19.7985C155.098 20.0961 155.159 20.6615 155.282 20.7507C155.435 20.84 155.681 20.8995 155.926 20.7805C156.049 20.6912 156.203 20.4829 156.233 20.4234C156.448 20.1258 156.479 20.0068 156.909 19.3521C157.123 19.0546 157.461 18.6082 157.676 18.3106C157.86 18.0725 158.136 17.7452 158.351 17.4774C158.597 17.1798 159.088 16.7632 159.395 16.7334C159.548 16.7334 159.487 17.0905 159.487 17.1203L159.395 17.894C159.364 18.1618 159.425 18.3404 159.517 18.4594C159.64 18.6379 159.824 18.7272 159.947 18.6975C160.131 18.6677 160.377 18.3999 160.592 18.1023C160.714 17.9535 160.837 17.775 160.96 17.6559C161.267 17.2393 161.236 17.1798 161.881 16.6739C162.003 16.5549 162.188 16.4656 162.31 16.4656C162.372 16.4656 162.433 16.5251 162.402 16.6442C162.402 16.8525 162.065 17.7452 161.942 18.3701C161.85 18.7867 161.819 19.2033 161.819 19.4712C161.789 19.7687 161.819 20.0663 161.942 20.3044C162.065 20.602 162.249 20.7805 162.464 20.7805C162.832 20.7507 162.894 20.6912 163.231 20.3937C163.599 20.0663 164.06 19.6497 164.52 19.2033L165.441 18.3404C165.686 18.1023 166.024 17.9238 166.208 17.8047C166.27 17.775 166.27 17.5071 166.239 17.5071C166.147 17.4179 165.871 17.5071 165.779 17.5369C165.472 17.8642 164.704 18.5189 164.275 18.9355C164.09 19.1141 163.722 19.3819 163.323 19.5604C163.262 19.5902 163.2 19.5902 163.139 19.5902C162.986 19.5902 162.924 19.2331 162.955 18.8165C162.955 18.6082 163.047 18.2511 163.108 17.9238C163.2 17.5964 163.323 16.9417 163.599 16.3764Z" fill="#3554D1"/>
<path d="M86.2256 2.89584V6.61557H91.167V21.7028H96.1084V6.61557H101.019V2.89584H86.2256ZM103.137 21.7028H107.771V14.2931C107.771 11.8529 109.521 10.4246 112.866 10.4246V6.67508C110.349 6.67508 108.815 7.24048 107.771 8.66886L107.556 6.91315H103.137V21.7028ZM117.347 5.21695C118.084 5.21695 118.728 4.94913 119.25 4.44325C119.772 3.93737 120.048 3.34221 120.048 2.62802C120.048 1.91383 119.772 1.31868 119.25 0.783038C118.728 0.306913 118.084 0.039093 117.347 0.039093C116.611 0.039093 115.966 0.306913 115.444 0.783038C114.923 1.31868 114.646 1.91383 114.646 2.62802C114.646 3.34221 114.923 3.93737 115.444 4.44325C115.966 4.94913 116.611 5.21695 117.347 5.21695ZM115.045 21.7028H119.649V6.91315H115.045V21.7028ZM132.263 21.9111C136.223 21.9706 139.537 18.727 139.476 14.2931C139.537 9.85917 136.223 6.58581 132.263 6.67508C129.747 6.67508 127.905 7.41903 127.107 8.87716L126.892 6.91315H122.473V28.2495H127.107V19.709C127.936 21.0779 129.839 21.9111 132.263 21.9111ZM130.974 10.4246C132.079 10.4246 133 10.7519 133.737 11.4958C134.473 12.21 134.842 13.1623 134.842 14.2931C134.842 15.4239 134.473 16.3761 133.737 17.0903C133 17.8045 132.079 18.1914 130.974 18.1914C129.9 18.1914 128.979 17.8045 128.212 17.0903C127.476 16.3761 127.107 15.4239 127.107 14.2931C127.107 13.1623 127.476 12.21 128.212 11.4958C128.979 10.7519 129.9 10.4246 130.974 10.4246Z" fill="#009813"/>
<path d="M86.2256 2.89584V6.61557H91.167V21.7028H96.1084V6.61557H101.019V2.89584H86.2256ZM103.137 21.7028H107.771V14.2931C107.771 11.8529 109.521 10.4246 112.866 10.4246V6.67508C110.349 6.67508 108.815 7.24048 107.771 8.66886L107.556 6.91315H103.137V21.7028ZM117.347 5.21695C118.084 5.21695 118.728 4.94913 119.25 4.44325C119.772 3.93737 120.048 3.34221 120.048 2.62802C120.048 1.91383 119.772 1.31868 119.25 0.783038C118.728 0.306913 118.084 0.039093 117.347 0.039093C116.611 0.039093 115.966 0.306913 115.444 0.783038C114.923 1.31868 114.646 1.91383 114.646 2.62802C114.646 3.34221 114.923 3.93737 115.444 4.44325C115.966 4.94913 116.611 5.21695 117.347 5.21695ZM115.045 21.7028H119.649V6.91315H115.045V21.7028ZM132.263 21.9111C136.223 21.9706 139.537 18.727 139.476 14.2931C139.537 9.85917 136.223 6.58581 132.263 6.67508C129.747 6.67508 127.905 7.41903 127.107 8.87716L126.892 6.91315H122.473V28.2495H127.107V19.709C127.936 21.0779 129.839 21.9111 132.263 21.9111ZM130.974 10.4246C132.079 10.4246 133 10.7519 133.737 11.4958C134.473 12.21 134.842 13.1623 134.842 14.2931C134.842 15.4239 134.473 16.3761 133.737 17.0903C133 17.8045 132.079 18.1914 130.974 18.1914C129.9 18.1914 128.979 17.8045 128.212 17.0903C127.476 16.3761 127.107 15.4239 127.107 14.2931C127.107 13.1623 127.476 12.21 128.212 11.4958C128.979 10.7519 129.9 10.4246 130.974 10.4246Z" fill="black" fill-opacity="0.2"/>
</svg>
