<?xml version="1.0" encoding="UTF-8"?>
<!DOCTYPE svg PUBLIC "-//W3C//DTD SVG 1.1//EN" "http://www.w3.org/Graphics/SVG/1.1/DTD/svg11.dtd">
<!-- Creator: CorelDRAW X7 -->
<svg xmlns="http://www.w3.org/2000/svg" xml:space="preserve" width="3.39705in" height="0.556417in" version="1.1" style="shape-rendering:geometricPrecision; text-rendering:geometricPrecision; image-rendering:optimizeQuality; fill-rule:evenodd; clip-rule:evenodd"
viewBox="0 0 3397 556"
 xmlns:xlink="http://www.w3.org/1999/xlink">
 <defs>
  <style type="text/css">
   <![CDATA[
    .fil5 {fill:none}
    .fil0 {fill:#001C31}
    .fil1 {fill:#336799}
    .fil4 {fill:black;fill-rule:nonzero}
    .fil2 {fill:#001C31;fill-rule:nonzero}
    .fil3 {fill:#336799;fill-rule:nonzero}
   ]]>
  </style>
 </defs>
 <g id="Layer_x0020_1">
  <metadata id="CorelCorpID_0Corel-Layer"/>
  <g id="_2576136521472">
   <g>
    <g>
     <path class="fil0" d="M56 51l0 253c4,-3 13,-20 16,-25 15,-25 33,-54 46,-79 8,-15 29,-52 39,-66 4,-5 9,-3 17,-3l31 0c10,0 8,-1 8,21 0,40 -1,108 0,145 11,-13 62,-107 70,-123 11,-22 23,-42 35,-63 7,-12 30,-52 34,-63l-296 0 0 3z"/>
     <path class="fil1" d="M332 426l-52 0 -1 -166c-9,6 -137,243 -138,248l295 0 -1 -257c-5,6 -8,13 -13,21l-38 66c-8,15 -16,29 -25,44 -5,9 -21,40 -27,44z"/>
     <path class="fil0" d="M52 410l103 0 1 -178c-7,4 -24,36 -28,43l-63 112c-4,5 -11,17 -13,23z"/>
     <path class="fil1" d="M336 325l78 -133c5,-9 23,-35 24,-46l-102 0 0 179z"/>
    </g>
    <path class="fil2" d="M569 407l77 0 57 -203c7,-24 10,-45 10,-45l1 0c0,0 3,22 9,45l55 203 76 0 75 -292c2,-8 7,-11 17,-11l9 0 0 -56 -43 0c-26,0 -39,6 -44,29l-50 214c-5,21 -6,38 -6,38l-1 0c0,0 -2,-17 -7,-38l-62 -242 -56 0 -66 242c-5,21 -7,38 -7,38l-1 0c0,0 -2,-17 -6,-38l-49 -214c-6,-23 -20,-29 -45,-29l-43 0 0 56 10 0c8,0 14,3 16,11l74 292z"/>
    <path id="1" class="fil2" d="M1010 107l56 0 0 -59 -56 0 0 59zm-3 266c0,24 10,34 34,34l62 0 0 -54 -21 0c-7,0 -11,-4 -11,-11l0 -158c0,-24 -10,-35 -34,-35l-61 0 0 55 20 0c7,0 11,3 11,11l0 158z"/>
    <path id="2" class="fil2" d="M1127 367c0,0 37,46 108,46 56,0 99,-30 99,-79 0,-86 -137,-78 -137,-118 0,-15 15,-23 38,-23 14,0 33,6 33,18l0 13 56 0 0 -27c0,-42 -55,-54 -90,-54 -54,0 -101,24 -101,75 0,84 137,84 137,120 0,17 -16,25 -35,25 -44,0 -77,-38 -77,-38l-31 42z"/>
    <path id="3" class="fil2" d="M1392 407l64 0 0 -118c0,-12 1,-23 4,-34 10,-31 36,-53 70,-53 32,0 41,21 41,52l0 119c0,24 10,34 34,34l61 0 0 -54 -20 0c-7,0 -11,-4 -11,-11l0 -101c0,-68 -33,-98 -90,-98 -45,0 -77,26 -89,51l-1 0c0,0 1,-9 1,-22l0 -90c0,-24 -11,-34 -34,-34l-62 0 0 54 21 0c7,0 11,4 11,12l0 293z"/>
    <path id="4" class="fil2" d="M1685 407l57 0c24,0 33,-10 35,-34l11 -160c2,-24 1,-56 1,-56l1 0c0,0 10,36 20,56l59 133 54 0 60 -133c9,-20 19,-56 19,-56l2 0c0,0 -2,32 0,56l12 160c2,24 10,34 34,34l57 0 0 -56 -15 0c-7,0 -11,-4 -12,-11l-23 -292 -69 0 -74 171c-8,21 -17,48 -17,48l-1 0c0,0 -9,-27 -18,-48l-74 -171 -69 0 -23 292c-1,7 -4,11 -11,11l-16 0 0 56z"/>
    <path id="5" class="fil2" d="M2133 278c0,74 53,135 138,135 65,0 104,-39 104,-39l-27 -44c0,0 -30,29 -72,29 -39,0 -72,-24 -78,-70l179 0c0,0 1,-16 1,-23 0,-69 -40,-123 -114,-123 -78,0 -131,56 -131,135zm68 -33c7,-33 30,-52 63,-52 26,0 47,21 48,52l-111 0z"/>
    <path id="6" class="fil3" d="M2510 407l67 0 0 -303 55 0c7,0 11,4 11,11l0 22 58 0 0 -57c0,-24 -8,-32 -32,-32l-251 0c-24,0 -32,8 -32,32l0 57 58 0 0 -22c0,-7 4,-11 11,-11l55 0 0 303z"/>
    <path id="7" class="fil3" d="M2728 407l64 0 0 -102c0,-15 2,-29 6,-42 11,-38 43,-54 70,-54 9,0 16,1 16,1l0 -63c0,0 -6,-1 -12,-1 -39,0 -70,29 -82,66l-1 0c0,0 1,-7 1,-16l0 -16c0,-21 -12,-31 -34,-31l-59 0 0 55 20 0c7,0 11,3 11,11l0 192z"/>
    <path id="8" class="fil3" d="M2942 107l56 0 0 -59 -56 0 0 59zm-3 266c0,24 10,34 34,34l61 0 0 -54 -20 0c-7,0 -11,-4 -11,-11l0 -158c0,-24 -10,-35 -34,-35l-61 0 0 55 20 0c7,0 11,3 11,11l0 158z"/>
    <path id="9" class="fil3" d="M3088 509l64 0 0 -107c0,-13 -1,-22 -1,-22l1 0c0,0 23,33 74,33 68,0 119,-53 119,-135 0,-80 -45,-135 -115,-135 -61,0 -82,41 -82,41l-1 0c0,0 0,-4 0,-10 0,-14 -9,-25 -33,-25l-57 0 0 55 20 0c7,0 11,3 11,11l0 294zm63 -229c0,-57 31,-82 64,-82 38,0 65,32 65,81 0,51 -30,80 -66,80 -42,0 -63,-39 -63,-79z"/>
    <polygon class="fil4" points="3159,508 3165,508 3165,497 3159,497 "/>
    <path id="1" class="fil4" d="M3193 509c-4,0 -8,-1 -12,-4 -3,-2 -6,-5 -8,-8 -3,-4 -4,-8 -4,-12 0,-5 1,-9 4,-12 2,-4 5,-7 8,-9 4,-2 8,-3 12,-3 5,0 9,1 13,3 4,3 7,6 9,10l-7 0c-2,-3 -4,-4 -6,-6 -3,-1 -5,-2 -8,-2 -4,0 -7,1 -10,3 -2,1 -5,3 -6,6 -2,3 -3,6 -3,10 0,3 1,6 3,9 1,3 4,5 6,6 3,2 6,3 10,3 2,0 5,-1 8,-2 2,-1 4,-3 6,-6l7 0c-2,4 -5,8 -9,10 -4,2 -8,4 -13,4z"/>
    <path id="2" class="fil4" d="M3244 461c4,0 8,1 12,3 3,2 6,5 8,9 3,3 4,7 4,12 0,4 -1,8 -4,12 -2,3 -5,6 -8,8 -4,3 -8,4 -12,4 -5,0 -9,-1 -12,-4 -4,-2 -7,-5 -9,-8 -2,-4 -3,-8 -3,-12 0,-5 1,-9 3,-12 2,-4 5,-7 9,-9 3,-2 7,-3 12,-3zm0 5c-4,0 -7,1 -10,3 -2,1 -4,3 -6,6 -2,3 -3,6 -3,10 0,3 1,6 3,9 2,3 4,5 7,6 2,2 5,3 9,3 3,0 6,-1 9,-2 3,-2 5,-4 6,-7 2,-3 3,-6 3,-9 0,-4 -1,-7 -3,-10 -1,-3 -3,-5 -6,-6 -3,-2 -6,-3 -9,-3z"/>
    <path id="3" class="fil4" d="M3325 461c6,0 11,1 14,5 4,4 6,10 6,17l0 25 -6 0 0 -25c0,-5 -2,-10 -4,-12 -2,-3 -6,-5 -10,-5 -4,0 -7,2 -10,5 -2,2 -3,7 -3,12l0 25 -6 0 0 -25c0,-5 -1,-10 -4,-12 -2,-3 -6,-5 -10,-5 -4,0 -7,2 -10,5 -2,2 -3,7 -3,12l0 25 -6 0 0 -25c0,-7 2,-13 5,-17 4,-4 8,-5 14,-5 4,0 8,0 10,2 3,2 5,5 7,9 1,-4 3,-7 6,-9 3,-2 6,-2 10,-2z"/>
   </g>
   <rect class="fil5" width="3397" height="556"/>
  </g>
 </g>
</svg>
