<?xml version="1.0" encoding="UTF-8"?>
<!DOCTYPE svg PUBLIC "-//W3C//DTD SVG 1.1//EN" "http://www.w3.org/Graphics/SVG/1.1/DTD/svg11.dtd">
<!-- Creator: CorelDRAW X7 -->
<svg xmlns="http://www.w3.org/2000/svg" xml:space="preserve" width="4.35555in" height="4.35555in" version="1.1" style="shape-rendering:geometricPrecision; text-rendering:geometricPrecision; image-rendering:optimizeQuality; fill-rule:evenodd; clip-rule:evenodd"
viewBox="0 0 831 831"
 xmlns:xlink="http://www.w3.org/1999/xlink">
 <defs>
  <style type="text/css">
   <![CDATA[
    .fil0 {fill:#2B2A29}
   ]]>
  </style>
 </defs>
 <g id="Layer_x0020_1">
  <metadata id="CorelCorpID_0Corel-Layer"/>
  <path class="fil0" d="M416 0c-229,0 -416,187 -416,416 0,228 187,415 416,415 228,0 415,-187 415,-415 0,-229 -187,-416 -415,-416zm341 549l30 -30 1 -3c-6,20 -12,39 -21,58l-10 -25zm15 -104l-45 -44 0 -30 30 30 40 68c0,4 -2,9 -2,12l-23 -36zm-89 -178l44 15 30 30 -45 -30 -29 15 0 -30zm-446 -163l0 30 -29 -15 -24 -12c6,-5 13,-9 21,-14l32 11zm-207 334l15 7 14 15 30 0 45 30 0 29 -15 30 29 45 45 44 15 30 0 73c-101,-66 -171,-176 -178,-303l0 0zm265 344l17 -25 14 -45 30 -14 15 -60 30 -44 -30 -15 -59 -30 -15 -44 -45 0 -15 -30 -59 -30 -30 45 -29 -15 0 -30 -15 -15 0 -29 -30 29 -29 -14 0 -30 44 -30 45 30 29 -30 60 -74 44 -15 0 -30 45 15 15 -44 -15 -30 -45 -15 -15 30 -29 0 0 30 -45 -30 15 -15 59 -30 30 -29 15 0 -15 29 30 15 29 -29 -15 -45 -44 0 -15 30 -15 -30 12 -28c12,-5 22,-9 34,-14l14 27 29 0 15 45 0 29 30 45 15 -30 44 -29 30 -60 12 -38c67,12 127,41 176,83l-55 15 -29 29 -30 15 59 15 30 0 -15 -45 30 0 -15 60 -59 0 -30 15 -30 59 -14 0 -15 15 29 15 45 -45 30 15 29 30 0 -15 -15 -30 45 30 59 30c0,0 30,29 15,29 -15,0 -59,-15 -59,-15l-45 15 -29 -44 -60 0 -44 15 -45 59 -15 44 15 60 45 29 59 -14 45 14 0 45 14 44 -14 30 40 95c-63,43 -137,68 -218,68 -42,0 -84,-7 -121,-19l0 0zm224 -604l30 45 -30 0 0 14 -29 -14 29 -45z"/>
 </g>
</svg>
